<?xml version="1.0" encoding="UTF-8"?>
<svg width="512px" height="512px" viewBox="0 0 512 512" version="1.1" xmlns="http://www.w3.org/2000/svg" xmlns:xlink="http://www.w3.org/1999/xlink">
    <title>favicon</title>
    <defs>
        <linearGradient x1="50%" y1="0%" x2="50%" y2="99.4298986%" id="linearGradient-1">
            <stop stop-color="#1B1B1B" offset="0%"></stop>
            <stop stop-color="#282828" offset="99.9480988%"></stop>
        </linearGradient>
    </defs>
    <g id="favicon" stroke="none" stroke-width="1" fill="none" fill-rule="evenodd">
        <path d="M146.141456,-7.25467311e-15 L365.858544,7.25467311e-15 C416.675112,-4.215174e-15 435.102427,5.29105984 453.680205,15.2265641 C472.257983,25.1620684 486.837932,39.7420171 496.773436,58.3197949 C506.70894,76.8975727 512,95.3248882 512,146.141456 L512,365.858544 C512,416.675112 506.70894,435.102427 496.773436,453.680205 C486.837932,472.257983 472.257983,486.837932 453.680205,496.773436 C435.102427,506.70894 416.675112,512 365.858544,512 L146.141456,512 C95.3248882,512 76.8975727,506.70894 58.3197949,496.773436 C39.7420171,486.837932 25.1620684,472.257983 15.2265641,453.680205 C5.29105984,435.102427 0,416.675112 0,365.858544 L7.25467311e-15,146.141456 C-4.215174e-15,95.3248882 5.29105984,76.8975727 15.2265641,58.3197949 C25.1620684,39.7420171 39.7420171,25.1620684 58.3197949,15.2265641 C76.8975727,5.29105984 95.3248882,4.215174e-15 146.141456,-7.25467311e-15 Z" id="bg" fill="url(#linearGradient-1)"></path>
        <path d="M0,0 L512,512 M512,0 L0,512 M33,0 L33,512 M159,0 L159,512 M256,0 L256,512 M353,0 L353,512 M479,0 L479,512 M0,479 L512,479 M0,353 L512,353 M0,256 L512,256 M0,159 L512,159 M0,33 L512,33 M256,479 C379.159499,479 479,379.159499 479,256 C479,132.840501 379.159499,33 256,33 C132.840501,33 33,132.840501 33,256 C33,379.159499 132.840501,479 256,479 Z M256,393 C331.663011,393 393,331.663011 393,256 C393,180.336989 331.663011,119 256,119 C180.336989,119 119,180.336989 119,256 C119,331.663011 180.336989,393 256,393 Z M256,353 C309.571621,353 353,309.571621 353,256 C353,202.428379 309.571621,159 256,159 C202.428379,159 159,202.428379 159,256 C159,309.571621 202.428379,353 256,353 Z" id="Grid" stroke-opacity="0.5" stroke="#FFFFFF" stroke-width="2" stroke-linecap="square"></path>
    </g>
</svg>